<svg width="156" height="35" viewBox="0 0 156 35" fill="none" xmlns="http://www.w3.org/2000/svg">
<path d="M0 12.662H14.3H22.984V4.05602L0 12.662Z" fill="#FF9D28"/>
<path d="M22.9844 4.056V34.476L33.8524 0L22.9844 4.056Z" fill="#68C5ED"/>
<path d="M22.9838 12.662H14.2998L22.9838 34.45V12.662Z" fill="#044D80"/>
<path d="M0 12.662L16.536 18.252L14.3 12.662H0Z" fill="#E54747"/>
<path d="M52.676 26.442C52.546 26.572 52.3381 26.728 52.0521 26.91C51.7661 27.092 51.376 27.3 50.908 27.482C50.44 27.664 49.868 27.846 49.166 27.976C48.49 28.106 47.71 28.184 46.826 28.184C45.136 28.184 43.654 27.898 42.406 27.378C41.158 26.832 40.144 26.078 39.338 25.09C38.532 24.102 37.934 22.958 37.57 21.632C37.18 20.306 36.998 18.824 36.998 17.238C36.998 15.652 37.206 14.17 37.622 12.818C38.038 11.466 38.636 10.296 39.468 9.308C40.274 8.32 41.314 7.54001 42.536 6.99401C43.758 6.44801 45.214 6.162 46.878 6.162C47.684 6.162 48.438 6.24 49.088 6.37C49.738 6.526 50.336 6.682 50.83 6.89C51.324 7.098 51.7401 7.30601 52.0521 7.51401C52.3901 7.72201 52.624 7.93 52.78 8.06C52.962 8.216 53.1441 8.424 53.274 8.658C53.404 8.892 53.482 9.152 53.482 9.412C53.482 9.828 53.326 10.244 53.014 10.66C52.702 11.076 52.364 11.466 51.974 11.83C51.714 11.57 51.428 11.31 51.116 11.05C50.804 10.79 50.44 10.556 50.05 10.348C49.66 10.14 49.218 9.98401 48.724 9.85401C48.23 9.72401 47.684 9.646 47.06 9.646C45.994 9.646 45.084 9.854 44.356 10.296C43.628 10.738 43.056 11.284 42.614 11.986C42.172 12.688 41.86 13.468 41.678 14.352C41.496 15.236 41.392 16.146 41.392 17.082C41.392 18.07 41.496 19.006 41.678 19.916C41.86 20.826 42.198 21.606 42.666 22.308C43.134 23.01 43.732 23.556 44.486 23.972C45.24 24.388 46.15 24.596 47.268 24.596C47.866 24.596 48.386 24.518 48.88 24.388C49.374 24.232 49.816 24.05 50.18 23.842C50.57 23.634 50.882 23.4 51.168 23.192C51.454 22.958 51.688 22.75 51.87 22.594C52 22.75 52.1301 22.932 52.3121 23.14C52.4941 23.348 52.65 23.582 52.78 23.79C52.936 24.024 53.04 24.258 53.17 24.492C53.274 24.726 53.326 24.934 53.326 25.116C53.326 25.402 53.274 25.61 53.17 25.818C53.066 26 52.884 26.208 52.676 26.442ZM68.9 24.024C68.9 25.688 69.1341 26.91 69.6281 27.664C69.2381 27.82 68.9001 27.924 68.5621 27.976C68.2241 28.028 67.8861 28.08 67.5221 28.08C66.7681 28.08 66.1961 27.924 65.806 27.638C65.416 27.352 65.1561 26.91 65.0521 26.364C64.5841 26.858 63.986 27.274 63.206 27.612C62.452 27.95 61.5161 28.106 60.424 28.106C59.8521 28.106 59.28 28.028 58.708 27.872C58.136 27.716 57.616 27.456 57.148 27.092C56.68 26.728 56.316 26.26 56.004 25.662C55.7181 25.064 55.562 24.336 55.562 23.478C55.562 22.412 55.8221 21.528 56.3421 20.852C56.8621 20.176 57.5121 19.656 58.2921 19.266C59.0721 18.876 59.93 18.616 60.8141 18.46C61.7241 18.304 62.556 18.226 63.31 18.174C63.57 18.148 63.804 18.148 64.064 18.148H64.74V17.576C64.74 16.77 64.532 16.198 64.09 15.834C63.648 15.496 62.946 15.314 61.984 15.314C61.074 15.314 60.268 15.47 59.566 15.756C58.864 16.042 58.162 16.38 57.486 16.77C57.2 16.406 56.9401 16.016 56.784 15.574C56.6021 15.132 56.524 14.82 56.524 14.612C56.524 14.326 56.68 14.04 57.018 13.754C57.356 13.468 57.798 13.234 58.37 13C58.942 12.766 59.592 12.61 60.3461 12.454C61.074 12.324 61.854 12.246 62.6861 12.246C63.83 12.246 64.7921 12.35 65.5721 12.584C66.3521 12.818 67.0021 13.182 67.496 13.65C67.99 14.144 68.3541 14.742 68.5621 15.47C68.7701 16.198 68.874 17.056 68.874 18.018L68.9 24.024ZM64.844 20.358H64.4021C64.2461 20.358 64.116 20.358 63.96 20.384C63.44 20.436 62.92 20.488 62.4 20.566C61.88 20.644 61.4121 20.8 61.0221 21.008C60.6321 21.216 60.2941 21.502 60.034 21.84C59.774 22.178 59.6441 22.62 59.6441 23.14C59.6441 23.738 59.8 24.232 60.138 24.648C60.476 25.064 61.048 25.272 61.854 25.272C62.244 25.272 62.6341 25.22 62.9981 25.116C63.3621 25.012 63.674 24.882 63.96 24.7C64.246 24.518 64.454 24.336 64.61 24.154C64.766 23.946 64.844 23.764 64.844 23.608V20.358ZM76.7781 14.118C77.1161 13.728 77.636 13.312 78.364 12.896C79.092 12.48 79.9761 12.272 81.0681 12.272C81.8481 12.272 82.602 12.402 83.304 12.662C84.006 12.922 84.6301 13.364 85.1761 13.936C85.722 14.534 86.1641 15.314 86.4761 16.276C86.8141 17.238 86.9701 18.434 86.9701 19.864C86.9701 21.502 86.7881 22.88 86.3981 23.946C86.0081 25.012 85.5401 25.87 84.9421 26.468C84.3441 27.092 83.668 27.534 82.94 27.794C82.2121 28.054 81.458 28.184 80.73 28.184C80.132 28.184 79.586 28.106 79.144 27.976C78.702 27.846 78.312 27.69 78 27.508C77.688 27.352 77.4541 27.17 77.2721 27.014C77.1161 26.858 76.986 26.728 76.96 26.676V34.476H72.644V12.74C72.748 12.714 72.878 12.688 73.034 12.688C73.164 12.662 73.32 12.662 73.4761 12.636C73.6581 12.636 73.84 12.61 74.074 12.61C74.776 12.61 75.3741 12.714 75.8681 12.948C76.3361 13.182 76.6481 13.572 76.7781 14.118ZM82.4981 19.968C82.4981 19.344 82.4461 18.746 82.3421 18.2C82.2381 17.654 82.0561 17.186 81.8221 16.77C81.5881 16.38 81.25 16.068 80.834 15.834C80.418 15.6 79.924 15.496 79.326 15.496C78.4421 15.496 77.8181 15.678 77.48 15.99C77.142 16.328 76.96 16.692 76.96 17.108V23.842C77.1161 24.024 77.4281 24.206 77.87 24.44C78.312 24.674 78.8061 24.778 79.3781 24.778C80.4441 24.778 81.224 24.362 81.744 23.504C82.238 22.672 82.4981 21.502 82.4981 19.968ZM90.2981 25.428C90.1421 25.012 90.0641 24.57 90.0121 24.102C89.9601 23.634 89.96 23.166 89.96 22.698V8.008C90.1161 7.982 90.2721 7.956 90.4281 7.956C90.5841 7.93 90.7401 7.93001 90.8961 7.90401C91.0521 7.90401 91.2341 7.878 91.39 7.878C91.7281 7.878 92.066 7.904 92.404 7.982C92.7421 8.034 93.0541 8.164 93.314 8.372C93.6 8.554 93.8081 8.814 93.9901 9.152C94.146 9.49 94.25 9.906 94.25 10.426V12.688H98.6961V15.886H94.2761V22.646C94.2761 24.128 94.8741 24.856 96.07 24.856C96.3561 24.856 96.6421 24.804 96.9021 24.726C97.1621 24.622 97.396 24.518 97.604 24.414C97.812 24.31 97.994 24.18 98.1501 24.05C98.306 23.92 98.4101 23.816 98.4881 23.764C98.8001 24.232 99.0601 24.622 99.2161 24.96C99.3721 25.298 99.4761 25.61 99.4761 25.922C99.4761 26.208 99.3721 26.468 99.1381 26.728C98.9041 26.988 98.5921 27.248 98.2021 27.456C97.8121 27.69 97.3181 27.872 96.7461 28.002C96.1741 28.132 95.55 28.21 94.8741 28.21C93.574 28.21 92.5341 27.95 91.8061 27.456C91.1301 26.91 90.6101 26.26 90.2981 25.428ZM109.616 25.012C110.136 25.012 110.604 24.96 111.02 24.83C111.41 24.726 111.774 24.57 112.112 24.414C112.424 24.258 112.71 24.05 112.944 23.868C113.178 23.66 113.386 23.478 113.568 23.322C113.828 23.634 114.088 24.05 114.374 24.544C114.66 25.038 114.79 25.454 114.79 25.766C114.79 26.234 114.53 26.65 114.01 27.04C113.568 27.378 112.944 27.664 112.112 27.924C111.306 28.158 110.344 28.288 109.252 28.288C108.264 28.288 107.276 28.158 106.314 27.898C105.352 27.638 104.494 27.196 103.74 26.572C102.986 25.948 102.388 25.09 101.92 24.024C101.452 22.958 101.218 21.606 101.218 19.994C101.218 18.668 101.426 17.524 101.842 16.562C102.258 15.6 102.804 14.794 103.48 14.17C104.156 13.546 104.936 13.078 105.82 12.766C106.678 12.48 107.562 12.324 108.472 12.324C109.642 12.324 110.656 12.506 111.488 12.87C112.32 13.234 112.97 13.728 113.49 14.352C114.01 14.976 114.374 15.678 114.608 16.484C114.842 17.29 114.946 18.122 114.946 19.006V19.448C114.946 19.63 114.946 19.786 114.92 19.994C114.92 20.176 114.894 20.358 114.894 20.54C114.894 20.722 114.868 20.852 114.842 20.956H105.508C105.586 22.126 105.95 23.088 106.6 23.868C107.224 24.622 108.238 25.012 109.616 25.012ZM111.072 18.59C111.072 17.576 110.864 16.744 110.474 16.12C110.084 15.496 109.382 15.158 108.368 15.158C107.484 15.158 106.808 15.47 106.288 16.068C105.768 16.666 105.508 17.498 105.508 18.59H111.072ZM122.46 14.196C122.59 14.014 122.746 13.806 122.954 13.572C123.162 13.338 123.422 13.13 123.734 12.948C124.046 12.766 124.384 12.61 124.748 12.48C125.112 12.35 125.502 12.298 125.944 12.298C126.204 12.298 126.464 12.324 126.75 12.35C127.036 12.402 127.296 12.48 127.53 12.584C127.764 12.688 127.972 12.844 128.128 13.052C128.284 13.26 128.362 13.494 128.362 13.78C128.362 14.248 128.258 14.768 128.024 15.366C127.79 15.964 127.556 16.484 127.322 16.9C126.958 16.614 126.594 16.38 126.256 16.224C125.892 16.068 125.476 15.99 124.982 15.99C124.332 15.99 123.786 16.172 123.344 16.562C122.902 16.952 122.668 17.394 122.668 17.94V28.184H118.352V12.714C118.456 12.688 118.586 12.662 118.742 12.662C118.872 12.636 119.028 12.636 119.184 12.61C119.34 12.61 119.548 12.584 119.782 12.584C120.458 12.584 121.056 12.714 121.55 12.974C122.018 13.26 122.33 13.65 122.46 14.196ZM134.706 14.196C134.836 14.014 134.992 13.806 135.2 13.572C135.408 13.338 135.668 13.13 135.98 12.948C136.292 12.766 136.63 12.61 136.994 12.48C137.358 12.35 137.748 12.298 138.19 12.298C138.45 12.298 138.71 12.324 138.996 12.35C139.282 12.402 139.542 12.48 139.776 12.584C140.01 12.688 140.218 12.844 140.374 13.052C140.53 13.26 140.608 13.494 140.608 13.78C140.608 14.248 140.504 14.768 140.27 15.366C140.036 15.964 139.802 16.484 139.568 16.9C139.204 16.614 138.84 16.38 138.502 16.224C138.138 16.068 137.722 15.99 137.228 15.99C136.578 15.99 136.032 16.172 135.59 16.562C135.148 16.952 134.914 17.394 134.914 17.94V28.184H130.598V12.714C130.702 12.688 130.832 12.662 130.988 12.662C131.118 12.636 131.274 12.636 131.43 12.61C131.586 12.61 131.794 12.584 132.028 12.584C132.704 12.584 133.302 12.714 133.796 12.974C134.264 13.26 134.576 13.65 134.706 14.196ZM155.272 24.024C155.272 25.688 155.506 26.91 156 27.664C155.61 27.82 155.272 27.924 154.934 27.976C154.596 28.028 154.258 28.08 153.894 28.08C153.14 28.08 152.568 27.924 152.178 27.638C151.788 27.352 151.528 26.91 151.424 26.364C150.956 26.858 150.358 27.274 149.578 27.612C148.824 27.95 147.888 28.106 146.796 28.106C146.224 28.106 145.652 28.028 145.08 27.872C144.508 27.716 143.988 27.456 143.52 27.092C143.052 26.728 142.688 26.26 142.376 25.662C142.09 25.064 141.934 24.336 141.934 23.478C141.934 22.412 142.194 21.528 142.714 20.852C143.234 20.176 143.884 19.656 144.664 19.266C145.444 18.876 146.302 18.616 147.186 18.46C148.096 18.304 148.928 18.226 149.682 18.174C149.942 18.148 150.176 18.148 150.436 18.148H151.112V17.576C151.112 16.77 150.904 16.198 150.462 15.834C150.02 15.496 149.318 15.314 148.356 15.314C147.446 15.314 146.64 15.47 145.938 15.756C145.236 16.042 144.534 16.38 143.858 16.77C143.572 16.406 143.312 16.016 143.156 15.574C142.974 15.132 142.896 14.82 142.896 14.612C142.896 14.326 143.052 14.04 143.39 13.754C143.728 13.468 144.17 13.234 144.742 13C145.314 12.766 145.964 12.61 146.718 12.454C147.446 12.324 148.226 12.246 149.058 12.246C150.202 12.246 151.164 12.35 151.944 12.584C152.724 12.818 153.374 13.182 153.868 13.65C154.362 14.144 154.726 14.742 154.934 15.47C155.142 16.198 155.246 17.056 155.246 18.018L155.272 24.024ZM151.216 20.358H150.774C150.618 20.358 150.488 20.358 150.332 20.384C149.812 20.436 149.292 20.488 148.772 20.566C148.252 20.644 147.784 20.8 147.394 21.008C147.004 21.216 146.666 21.502 146.406 21.84C146.146 22.178 146.016 22.62 146.016 23.14C146.016 23.738 146.172 24.232 146.51 24.648C146.848 25.064 147.42 25.272 148.226 25.272C148.616 25.272 149.006 25.22 149.37 25.116C149.734 25.012 150.046 24.882 150.332 24.7C150.618 24.518 150.826 24.336 150.982 24.154C151.138 23.946 151.216 23.764 151.216 23.608V20.358Z" fill="#044D80"/>
</svg>
