<svg width="54" height="54" viewBox="0 0 54 54" fill="none" xmlns="http://www.w3.org/2000/svg">
<path d="M54 27C54 41.9148 41.9148 54 27 54C12.0852 54 0 41.9148 0 27C0 12.0852 12.0852 0 27 0C41.9148 0 54 12.096 54 27Z" fill="#FF492C"/>
<path d="M38.6857 22.5936H31.7089V22.2696C31.7089 21.0816 31.9465 20.0988 32.4217 19.332C32.8969 18.5544 33.7177 17.874 34.9057 17.2692L35.4457 16.9992C36.4069 16.5132 36.6553 16.092 36.6553 15.5952C36.6553 15.0012 36.1369 14.5692 35.3053 14.5692C34.3117 14.5692 33.5665 15.0876 33.0481 16.1352L31.7089 14.796C32.0005 14.1696 32.4757 13.6728 33.1021 13.2732C33.7393 12.8736 34.4413 12.6792 35.2081 12.6792C36.1693 12.6792 37.0009 12.9276 37.6813 13.446C38.3833 13.9644 38.7289 14.6772 38.7289 15.5736C38.7289 17.01 37.9189 17.8848 36.4069 18.6624L35.5537 19.0944C34.6465 19.548 34.2037 19.9584 34.0741 20.682H38.6857V22.5936ZM38.0701 24.7968H30.4345L26.6221 31.4064H34.2577L38.0809 38.016L41.8933 31.4064L38.0701 24.7968ZM27.2809 35.8236C22.4209 35.8236 18.4681 31.8708 18.4681 27.0108C18.4681 22.1508 22.4209 18.198 27.2809 18.198L30.3049 11.88C29.3221 11.6856 28.3177 11.5884 27.2809 11.5884C18.7597 11.5884 11.8477 18.5004 11.8477 27.0108C11.8477 35.532 18.7489 42.444 27.2809 42.444C30.6721 42.444 33.8149 41.3424 36.3637 39.4848L33.0157 33.696C31.4821 35.0136 29.4733 35.8236 27.2809 35.8236Z" fill="white"/>
</svg>
