<svg width="98" height="80" viewBox="0 0 98 80" fill="none" xmlns="http://www.w3.org/2000/svg">
<path d="M96.5071 31.3929C95.5741 28.9441 93.6588 26.7579 91.3272 25.1813C84.5966 20.9085 74.3391 20.6031 67.4038 24.467C63.6214 26.3953 61.1358 30.2114 60.362 34.1412C58.9586 40.5978 59.3212 48.2798 64.2953 53.1191C70.0969 58.2037 78.5374 59.3272 86.0438 57.2386C86.4005 57.17 87.5311 56.8858 88.3104 56.4719L88.5299 56.3778C90.8615 55.4088 93.0849 53.8298 94.7446 51.6949C98.576 46.0937 98.8387 37.7006 96.5071 31.3929ZM84.2853 45.8914C84.0203 47.1156 83.1967 48.3841 81.898 48.8443C79.8302 49.7538 77.0329 49.5017 75.1164 48.4378C73.5092 47.3143 73.303 45.4335 73.0961 43.6554C72.9393 40.1474 72.686 36.4324 73.6688 33.2251C74.4391 31.2384 76.5637 30.7277 78.4849 30.5775C80.5029 30.5775 82.4672 30.8856 83.7138 32.5128C84.4895 33.6806 84.4421 35.2078 84.5954 36.5834C84.5421 39.4802 84.8024 42.9373 84.2853 45.8914Z" fill="#475569"/>
<path d="M22.9183 49.0509C21.2084 48.9467 19.2927 49.0964 17.6376 48.8941L17.6886 31.0303L17.7933 30.8818L22.9183 30.8316C22.972 27.9308 23.0229 24.8222 22.8649 22.1798L3.34572 22.1249L0.13132 22.1809C0.0783999 24.8748 0.0783999 28.026 0.13132 30.7771C1.89336 30.8316 3.5476 30.7771 5.2575 30.9362V48.2368L5.20772 48.9478L0.0783999 49.0521C-0.0261333 51.8502 -0.0261333 54.6491 0.0783999 57.4487H22.9171V49.0509H22.9183Z" fill="#475569"/>
<path d="M51.0439 0.146183L50.9891 0.244967L50.8821 0.146183C49.4858 -0.00356093 47.77 -0.0627529 46.2702 0.086991C45.7022 0.043087 45.0307 0.086991 44.3557 0.146183C31.9293 1.10697 20.486 7.47187 13.3359 18.3067C13.8542 18.2577 14.4755 18.4635 14.9949 18.2577C16.276 16.4851 17.6774 14.8025 19.1893 13.2221C20.5307 11.9501 21.7784 10.729 23.2304 9.80897C24.5781 10.6714 26.0779 11.3934 27.3719 12.2045C25.7686 14.1794 24.1108 16.1727 22.9199 18.3044C23.2802 18.4635 23.9564 18.4134 24.4754 18.3044C25.769 16.4247 27.1625 14.5412 28.8266 12.8619C31.0469 13.6788 33.2252 14.5412 35.5067 15.1539L35.7077 15.3562L34.4181 18.3044C34.9896 18.4134 35.3522 18.3601 35.9179 18.3044C36.3824 17.4447 36.7411 16.4804 37.2609 15.6106C40.2683 16.277 43.4278 16.6298 46.6387 16.7278C47.0499 17.0892 46.741 17.8489 46.8966 18.3044H48.2949C48.447 17.8046 48.2427 17.2378 48.447 16.785C51.4536 16.6282 54.6108 16.3213 57.521 15.609L57.773 15.6623L59.1717 18.3028C59.6385 18.3028 60.2587 18.4118 60.6221 18.1982L59.3245 15.2546L59.4327 15.1523C61.8106 14.5412 64.0407 13.6259 66.319 12.7117C67.9289 14.3903 69.4264 16.3746 70.7772 18.3016C71.344 18.3016 71.914 18.3573 72.3291 18.197C71.6897 17.0609 70.9438 15.9881 70.1014 14.9932C69.4163 14.0182 68.6521 13.1014 67.8164 12.2519V11.9885L71.442 9.90541L71.965 9.70235C75.1179 12.0887 77.877 14.9548 80.1417 18.1962C80.7634 18.1962 81.2824 18.4098 81.8018 18.1531C74.8568 7.78077 63.4143 1.10697 51.0439 0.146183ZM28.5624 10.9763C27.1637 10.4769 25.874 9.70901 24.6267 8.84505V8.74509C27.8925 6.35389 31.5157 4.5746 35.3491 3.35274C35.5059 3.19359 35.6058 3.04345 35.8101 3.04345V3.14812C36.2236 3.24808 36.536 2.78669 36.8975 3.08892C37.2111 3.35274 37.576 3.55344 37.8316 3.80668C34.6239 5.78745 31.4628 8.13278 28.5624 10.9763ZM36.4906 13.7866L36.2836 13.8309C34.1578 13.2766 32.0845 12.6086 30.1167 11.7466L30.2166 11.4413C33.0649 8.74509 36.0676 6.50206 39.382 4.77727C40.1624 5.08263 40.9386 5.33469 41.7144 5.69611L41.5623 6.09321C39.5925 8.5436 38.0413 11.1833 36.4906 13.7866ZM46.7923 15.1562C45.3458 15.3593 44.0507 15.1108 42.5952 14.9994C41.2036 14.7948 39.4388 14.6466 38.0413 14.1829C39.5435 11.397 41.3067 8.69491 43.4278 6.20806L46.7433 6.65965C46.8966 9.30016 46.7923 12.3554 46.7923 15.1562ZM39.6489 3.09128C39.382 2.88783 38.8708 2.78904 38.8151 2.43272C44.3074 1.16617 50.7766 1.06425 56.2199 2.43272V2.54052C51.7107 5.78745 44.4109 6.09399 39.6489 3.09128ZM48.3964 15.2107C48.2941 12.5059 48.3478 9.50713 48.3964 6.70747C49.436 6.5589 50.57 6.40093 51.6084 6.25079C53.6272 8.79134 55.5998 11.3958 56.9475 14.1817C54.1474 14.8591 51.2772 15.2045 48.3964 15.2107ZM64.9211 11.6435C62.8972 12.5059 60.8239 13.3201 58.6005 13.787C56.9961 11.0896 55.2364 8.39346 53.2627 5.78784C53.9887 5.38918 54.8738 5.08224 55.6488 4.67848C59.02 6.35585 62.2794 8.74548 65.0211 11.4844L64.9211 11.6435ZM70.3554 8.84544L66.7855 10.827H66.5228C63.7828 8.08888 60.5731 5.69729 57.3061 3.8102C57.4096 3.45348 57.9302 3.19672 58.2893 2.94349C62.6405 4.06579 66.731 5.99638 70.4597 8.64277L70.3554 8.84544Z" fill="#475569"/>
<path d="M46.8435 49.4484C41.9761 50.7737 36.6907 49.762 33.1706 46.0936C32.7582 45.584 32.4971 44.9784 32.0812 44.4719L25.0927 44.5205C24.9821 48.6408 24.9335 53.3746 25.0927 57.4475L32.857 57.3977L32.9605 54.9536C33.8444 55.3601 34.7245 55.8677 35.6045 56.3256C40.9898 58.5678 47.9227 59.0767 53.2582 56.3256C57.1449 54.1943 59.2166 50.0736 58.6459 45.6373C58.0802 41.3148 53.9356 37.3948 49.7443 36.3297L37.2086 32.7135L36.2815 32.2533C35.8672 31.9005 35.6069 31.445 35.708 30.8813C36.6919 29.2059 38.9734 29.7147 40.6821 29.7602C44.3065 30.2698 48.034 31.4909 50.1587 34.8005C52.4346 34.8005 55.0751 34.8448 57.5585 34.7472C57.6643 30.5755 57.5193 26.9143 57.4565 22.6893C55.1261 22.6356 52.2767 22.6356 49.9497 22.7426C49.8451 23.3479 50.0497 24.2099 49.7906 24.8229L47.4104 23.5501C41.7111 21.1589 33.7355 20.9096 28.5591 24.6246C25.1914 27.0628 24.1585 31.4434 25.0393 35.3093C25.7093 38.9667 29.2306 41.6676 32.5979 42.9349C37.2062 44.5613 42.0204 45.7393 46.6891 47.3143C47.1513 47.5213 47.7718 47.9807 47.6718 48.5413C47.6742 48.9929 47.205 49.2543 46.8447 49.4484" fill="#475569"/>
<path d="M80.3995 61.2612C78.2274 64.3686 75.4822 67.3706 72.4854 69.7053C72.376 69.8645 72.0659 69.8041 71.9672 69.6579C70.6685 68.8456 69.271 68.1812 68.0256 67.3705C69.6845 65.3874 71.291 63.4035 72.5336 61.2067H70.9225C69.6351 63.0966 68.2855 65.0797 66.5779 66.7535C64.2973 65.8394 62.2267 65.026 59.8971 64.4106L59.638 64.2146C60.0006 63.1863 60.6721 62.2212 60.8775 61.2024H59.4784L58.081 63.9519C55.0292 63.291 51.6616 62.9327 48.5554 62.7301C48.3986 62.2734 48.6044 61.6113 48.3986 61.2013H47.0521C46.9454 61.8136 47.2089 62.2746 46.8953 62.7822C43.6844 62.9296 40.5782 63.2918 37.5778 63.9068L36.1745 61.202C35.6621 61.202 35.0859 61.1044 34.728 61.2565L36.0216 64.2596L35.8671 64.4082C33.5462 65.0797 31.2643 65.8793 29.0318 66.8033L28.826 66.6991C27.3729 65.1213 25.9742 63.3988 24.8335 61.6677C24.5768 60.7979 23.5399 61.3067 22.9703 61.2044C24.2087 63.4462 25.8711 65.4282 27.525 67.467C26.1275 68.2835 24.7347 69.1941 23.2781 69.8621C20.11 67.4507 17.3482 64.5478 15.0974 61.2636C14.4745 61.1636 14.0645 61.2091 13.4385 61.2636C17.1672 67.0652 22.9688 72.1518 29.0279 75.1549C29.0279 75.1549 29.0279 75.1094 29.0836 75.1094C29.1279 75.1094 29.2314 75.2035 29.1279 75.2568C33.2215 77.2423 37.5743 78.6672 42.1791 79.2799C58.0786 81.3638 73.2533 74.5994 82.0517 61.2636C81.5025 61.2069 80.9489 61.2061 80.3995 61.2612ZM58.8081 65.8406L58.9602 65.7383C61.1946 66.2479 63.3114 66.9605 65.2808 67.9244C63.6223 69.8029 61.4984 71.4352 59.5329 72.808C58.3436 73.5179 57.148 74.2893 55.9042 74.8958L53.6819 73.9291L53.834 73.5763C55.7035 71.0855 57.3597 68.5379 58.8081 65.8406ZM48.6032 64.3118C51.5569 64.3674 54.5102 64.672 57.2503 65.331L57.3052 65.4854C55.8575 68.2294 54.0406 70.8825 52.0763 73.3709C51.1912 73.4752 50.3664 73.1231 49.4891 73.0687L48.604 72.964C48.5009 69.9621 48.446 67.3157 48.6032 64.313V64.3118ZM38.6123 65.2267C41.3049 64.7171 44.1003 64.3114 46.9983 64.3114L47.0517 72.9205C45.9623 73.1667 44.7714 73.1667 43.7353 73.4301C41.6119 70.9303 39.8545 68.2318 38.3532 65.4309L38.6123 65.2267ZM36.5876 65.7363L36.7977 65.7896C38.2952 68.5893 40.1619 71.2333 42.0254 73.8797C41.3061 74.2897 40.421 74.5347 39.6985 74.9483C36.1965 73.2186 33.0099 70.9129 30.2717 68.1275V67.9785C32.2956 67.0091 34.4156 66.2926 36.588 65.7363H36.5876ZM36.9534 76.679C32.6022 75.5559 28.5606 73.6214 24.8327 70.9813V70.8245C26.0758 70.0683 27.3235 69.2514 28.6649 68.6857C31.619 71.5947 34.6719 73.7817 37.9863 75.8648C37.7287 76.1702 37.3152 76.4771 36.9537 76.6798L36.9534 76.679ZM56.1641 77.3395C50.6761 78.5155 44.5609 78.5625 39.0764 77.2419C38.9718 76.9887 39.3351 76.9342 39.49 76.7852C44.3061 73.6778 51.8113 73.6778 56.529 77.0326C56.6835 77.3395 56.2687 77.2399 56.1641 77.3395ZM61.1374 75.9197L58.7035 76.6805C58.2879 76.4775 57.9277 76.1709 57.5616 75.8652L57.6662 75.7084C60.9818 73.7825 63.9833 71.4356 66.8327 68.6363C68.2314 69.1949 69.5791 69.9628 70.8256 70.8237C67.9225 73.1239 64.5548 74.6437 61.1374 75.9177V75.9197Z" fill="#475569"/>
</svg>
